PathFileType        4      (X/Y/Z)      C:\Users\ibrah\OneDrive - KTH\Model Validation - Orthoload\rmr-solver-1.0 - original\rmr-solver-1.0\ExperimentalData\S8R\trc\transformed_MSbfkg1.trc         
DataRate	CameraRate	NumFrames	NumMarkers	Units	OrigDataRate	OrigDataStartFrame	OrigNumFrames
50.0	50.0	12	27	mm	50.0	100	398
Frame#	Time	IJ			PX			C7			T8			SC			AA			TS			AI			PC			ACv			ACd			GH			EM			EL			EM2			EL2			US			RS			US2			RS2			MCP2			MCP5			SCREWAA			SCREWTS			SCREWAI			ACvloc			ACdloc			
		X1	Y1	Z1	X2	Y2	Z2	X3	Y3	Z3	X4	Y4	Z4	X5	Y5	Z5	X6	Y6	Z6	X7	Y7	Z7	X8	Y8	Z8	X9	Y9	Z9	X10	Y10	Z10	X11	Y11	Z11	X12	Y12	Z12	X13	Y13	Z13	X14	Y14	Z14	X15	Y15	Z15	X16	Y16	Z16	X17	Y17	Z17	X18	Y18	Z18	X19	Y19	Z19	X20	Y20	Z20	X21	Y21	Z21	X22	Y22	Z22	X23	Y23	Z23	X24	Y24	Z24	X25	Y25	Z25	X26	Y26	Z26	X27	Y27	Z27	
100	1.98	78.89214482305019	-33.10880726664817	0.9536480340103358	84.51414979932748	-181.0487649396028	19.62911576599386	-15.56691299952781	87.31377310438144	-29.11083154356036	-140.0328149042724	-83.50909518533257	-35.66090911480977	71.1954165811428	-19.96754585274836	22.75583238854843	-43.13096374650511	44.37507411146661	157.9646688476155	-67.91927796198333	63.46028879038892	63.61676539208719	-151.2381931003503	-77.5017584652051	35.48576195536166	27.67444787375213	12.54045107625786	126.0451445780583	-3.861400710009478	62.25546656782826	146.7709839813927	-3.861400710009478	62.25546656782826	146.7709839813927	-54.59260125866835	22.13462782317177	170.3178577941203	-255.4332105933859	-186.3978094999557	193.7017019485128	-257.3974907976783	-160.8415036344881	260.9234674331773													-413.7542929775924	-329.2516630246006	295.6332903144676	-445.3562622199885	-287.0582339297515	321.0691474016626																						
101	2.0	77.83505387218094	-32.45854010775808	0.8207463553917916	84.02693446195596	-180.4188277111925	19.14868167699392	-17.11944153165112	87.6912857785446	-28.76927931495944	-140.9872031475433	-83.56200426557369	-35.44146363568762	70.13821691699292	-19.39421018613813	22.66885054683072	-44.50309322858399	43.86959569779387	158.3540767096016	-69.72780281407366	63.07654503075324	64.14520737939561	-152.2277779248318	-78.34230119280826	35.86183571841716	26.40248523798971	12.59138252802516	126.109214327036	-5.386362440287968	62.03887871445694	147.0866311038795	-5.386362440287968	62.03887871445694	147.0866311038795	-55.93167683052386	21.39994903822337	170.5451549872709	-254.6913800431611	-189.1213520203425	193.7997064959313	-256.63587373938	-163.8767005925488	261.1380580331069													-410.5349900996275	-334.3753233034606	295.8937289693394	-442.6409120837712	-292.7101213748916	321.5569636581438																						
102	2.02	76.69309901606637	-31.74414596356717	0.7090257163561973	83.51505170065565	-179.7244581425844	18.6525168508729	-18.8048529008117	88.09857090643276	-28.37699080043435	-142.0036264932741	-83.63300578701234	-35.21455409298748	68.99122338444371	-18.76513193796463	22.60604482487969	-46.01102821536949	43.29957775395701	158.8256770913731	-71.71731093500568	62.60853085906638	64.76582643921684	-153.3007552070855	-79.32349154356297	36.34974056653106	25.00340994488295	12.63221671381679	126.2330097990817	-7.066046371889122	61.78639479065119	147.4734715852972	-7.066046371889122	61.78639479065119	147.4734715852972	-57.40304953416779	20.56254163925209	170.8282986625477	-253.7786390551516	-192.1998590769113	193.9308489534036	-255.6948698025158	-167.3033342124591	261.3977927755882													-406.7514393171196	-340.1417168544102	296.1932726595092	-439.4169694861239	-299.0851776122131	322.1187259534806																						
103	2.04	75.46643465711405	-30.97046669612807	0.614727858437974	82.97771416179958	-178.9685446009957	18.14483496814119	-20.62139454520794	88.52866137594862	-27.9465566333382	-143.080065679965	-83.72794483751397	-34.98697676347292	67.75419666969444	-18.08401845260859	22.56274819255192	-47.6528441943702	42.66931556993246	159.3723135101825	-73.88442848823995	62.05056860910825	65.4698677808599	-154.4541907188864	-80.44989018327996	36.95310240413106	23.4771676008966	12.66316381418922	126.412776501067	-8.899035774026387	61.50007812110572	147.9229920718082	-8.899035774026387	61.50007812110572	147.9229920718082	-59.00496825581615	19.62534008819857	171.1585499646316	-252.6890888773908	-195.6152181860995	194.1017263003026	-254.5639667784172	-171.0980852449208	261.7070595360237													-402.38465712763	-346.5020304876127	296.5459630424077	-435.656878384141	-306.1341611388356	322.7695858517275																						
104	2.06	74.15339537055137	-30.14186029396286	0.534586803033536	82.41312852811116	-178.1532658409688	17.63096321337343	-22.56966722289934	88.97438524454687	-27.49068402630082	-144.2157166475818	-83.85336758073555	-34.76508055567151	66.42497584747018	-17.35407280534313	22.53473400770826	-49.42822588409214	41.98422881034453	159.9853436587596	-76.22682305012646	61.39829959190737	66.24709535707979	-155.6850109878246	-81.72467744142982	37.67299285379017	21.82225623960794	12.68604594426738	126.6433735878701	-10.88566497384615	61.18328418163269	148.4254387627833	-10.88566497384615	61.18328418163269	148.4254387627833	-60.73705814591611	18.59214827668584	171.5265294642447	-251.4169595325277	-199.3468654848068	194.3186936137447	-253.2336254324982	-175.2342863053358	262.069697739714													-397.4185364105859	-353.4007251459633	296.9655734049926	-431.3358731928251	-313.8004760189026	323.5231787614954																						
105	2.08	72.75073898439439	-29.26211123296516	0.4660338266891169	81.81866991610534	-177.2800547068034	17.11721551682447	-24.65234638553554	89.42858333584793	-27.02160650341646	-145.4108282701627	-84.01622780729534	-34.5543920574421	64.99975412275624	-16.57794713137416	22.51846047265845	-51.33815268728222	41.25061729121699	160.6549107199531	-78.74296917293718	60.64897387220955	67.08617198668692	-156.9899683501775	-83.14919590785884	38.50766520226026	20.03602360930226	12.70415198280014	126.9183328558415	-13.0276764205581	60.84044995311961	148.9701487088136	-13.0276764205581	60.84044995311961	148.9701487088136	-62.59992807238962	17.46745362468726	171.9225374258517	-249.9561725351576	-203.3722108024209	194.5873898863173	-251.6951016932437	-179.6825597469903	262.4886243105281													-391.8404816590394	-360.7765449644955	297.4644861808162	-426.4329548427176	-322.0211910213038	324.3903113357149																						
106	2.1	71.2540728655186	-28.33444376157004	0.4073463099013782	81.19114096975007	-176.3496772889	16.61067496676974	-26.87364816932051	89.88429435776484	-26.55051447698773	-146.6664109806844	-84.22355160434358	-34.35929098095535	63.4735491600867	-15.75779694700406	22.5112615823684	-53.38438275546546	40.47532967336924	161.3702997653674	-81.43171118332523	59.80163259539335	67.97510995979735	-158.3655569886102	-84.72256214522993	39.45244090001272	18.11514591295805	12.72192492405328	127.2300289530471	-15.32765294107051	60.47675971880023	149.5459585834028	-15.32765294107051	60.47675971880023	149.5459585834028	-64.59458355614349	16.25617912434228	172.336866685589	-248.2999048565482	-207.667025840253	194.9122987795242	-249.9401942540083	-184.4114511576615	262.9655054640834													-385.6419296048109	-368.5635933773323	298.0526494225222	-420.9316953484675	-330.7281502739451	325.3778281515463																						
107	2.12	69.65842613427485	-27.36163237008179	0.3577300399844371	80.5270924417965	-175.362420087769	16.11889382922396	-29.23858859095382	90.33490102597919	-26.08703733185548	-147.9838481128753	-84.48208135375205	-34.18275201912911	61.84082829722239	-14.89542857564091	22.51147204794459	-55.56878081907811	39.66536638681477	162.1203617969083	-84.29166311318248	58.85717112437602	68.90176733092065	-159.807891949592	-86.4413821040046	40.49975665128827	16.05625025727002	12.74450536304767	127.5699577790719	-17.78827295052789	60.09771189527163	150.1416711656442	-17.78827295052789	60.09771189527163	150.1416711656442	-66.72169766458353	14.96339265975954	172.7601019611634	-246.4402058244693	-212.2057832834975	195.2963791880477	-247.9609509520717	-189.3880354806124	263.5005035933589													-378.8187327253249	-376.6924546008156	298.7366925753944	-414.8208291956689	-339.8491510732236	326.4877527674435																						
108	2.14	67.95891809741087	-26.34619398193979	0.3173299765345114	79.8231767985606	-174.3183672425744	15.64952778830021	-31.75210235022709	90.77423537512365	-25.63880453223391	-149.3644506017372	-84.79792116270039	-34.02616288957239	60.09623576045205	-13.99252216059098	22.51847894326421	-57.89254820359615	38.82744585527644	162.8939814389758	-87.32050158860994	57.81828275246765	69.85436097103324	-161.3125666030291	-88.29959641438622	41.63937009565594	13.85663087889229	12.77717015967333	127.9291088398283	-20.41145188551798	59.70862272472291	150.7465533143323	-20.41145188551798	59.70862272472291	150.7465533143323	-68.98080540113091	13.59399902558619	173.1834023061431	-244.3677171497773	-216.9619406721502	195.7407956883016	-245.7493722128974	-194.5784773681782	264.0921233005763													-371.3713939739627	-385.0913406874334	299.5192687671254	-408.0946077508952	-349.3091640990489	327.7167756308253																						
109	2.16	66.15146561135496	-25.290638578077	0.2871701734498653	79.07650395649132	-173.2177413283595	15.20992815879075	-34.41809883810616	91.19664564207046	-25.2111089012005	-150.8090000527697	-85.1762052358556	-33.88922252206997	58.23536082847149	-13.05090512792522	22.53269844920695	-60.35542112956266	37.9675684252743	163.68055918807	-90.51421809070791	56.68929410328008	70.82196528043305	-162.8745061674479	-90.28847057332412	42.85871033194867	11.51500146391145	12.82471701938081	128.2984065667007	-23.19744266309099	59.31411058345869	151.3508342240611	-23.19744266309099	59.31411058345869	151.3508342240611	-71.36949374396198	12.15244372267856	173.5987653358918	-242.0715397346163	-221.9081684827496	196.2447715257964	-243.2971510856794	-199.948532006615	264.7371730733566													-363.3051528543372	-393.6872448883186	300.3986723269072	-400.7529127182635	-359.0315697759652	329.0561323136144																						
110	2.18	64.23346984347138	-24.19774978391452	0.269029011661026	78.28496871333387	-172.0612754436212	14.80672103898486	-37.23853675117771	91.5970304071823	-24.80668975045406	-152.3173248944911	-85.62080868109446	-33.76991844447341	56.25548326950054	-12.07284613175141	22.55548160857033	-62.95490510730636	37.09061461388892	164.4704761966436	-93.86640140842363	55.47591313297912	71.79496562179952	-164.4878358207102	-92.39673244148757	44.14334942251378	9.032222963386054	12.89085224239748	128.6691867107738	-26.14397094818266	58.91760826548641	151.9461699719147	-26.14397094818266	58.91760826548641	151.9461699719147	-73.8826593000252	10.6424582923455	173.9992725381047	-239.5392798477741	-227.0165267879457	196.8055772907464	-240.5954869156205	-205.463977073348	265.4308497337256													-354.6299346028707	-402.4070814615928	301.368758003959	-392.801144586575	-368.9393823718226	330.4918828663114																						
111	2.2	62.20442591208638	-23.0708648177327	0.2652606925192099	77.44752256475782	-170.8505817670998	14.44540501642922	-40.21259515263541	91.97084781764154	-24.42564712339767	-153.8879496606176	-86.13411699821445	-33.66457869848749	54.15623527439291	-11.06133788502549	22.58895803713408	-65.68560922895972	36.20001305154899	165.2555093845226	-97.36761909784906	54.18491770034681	72.7654381828524	-166.1457815398301	-94.61084696593073	45.47756376838325	6.411948197444702	12.97763945526477	129.0336682398765	-29.24547753523873	58.52094941428037	152.5260404007921	-29.24547753523873	58.52094941428037	152.5260404007921	-76.51189892609415	9.066874507663208	174.379314397091	-236.7572925825683	-232.2585988482444	197.4186575290217	-237.6350037824026	-211.0909706130363	266.1669423144658													-345.3601845374794	-411.1787908670264	302.4191642407483	-384.2499200431761	-378.9564314830923	332.0055696694016																						
